<svg xmlns="http://www.w3.org/2000/svg" xmlns:xlink="http://www.w3.org/1999/xlink" width="500" zoomAndPan="magnify" viewBox="0 0 375 374.999991" height="500" preserveAspectRatio="xMidYMid meet" version="1.0"><defs><g/><clipPath id="c8299eef86"><path d="M 0.00390625 91.1875 L 187.496094 91.1875 L 187.496094 280.1875 L 0.00390625 280.1875 Z M 0.00390625 91.1875 " clip-rule="nonzero"/></clipPath><clipPath id="c3bcdf4dcb"><path d="M 184.261719 91.1875 L 374 91.1875 L 374 280.148438 L 184.261719 280.148438 Z M 184.261719 91.1875 " clip-rule="nonzero"/></clipPath></defs><g clip-path="url(#c8299eef86)"><path stroke-linecap="butt" transform="matrix(0.75, 0, 0, 0.750186, 0.00237019, 91.189432)" fill="none" stroke-linejoin="miter" d="M 0.00204809 -0.00257484 L 249.991664 -0.00257484 L 249.991664 251.934937 L 0.00204809 251.934937 L 0.00204809 -0.00257484 " stroke="#0284c7" stroke-width="14" stroke-opacity="1" stroke-miterlimit="4"/></g><g clip-path="url(#c3bcdf4dcb)"><path fill="#0284c7" d="M 184.261719 91.1875 L 373.917969 91.1875 L 373.917969 280.84375 L 184.261719 280.84375 Z M 184.261719 91.1875 " fill-opacity="1" fill-rule="nonzero"/></g><g fill="#0284c7" fill-opacity="1"><g transform="translate(11.053184, 252.035302)"><g><path d="M 107.21875 -136.609375 L 161.625 -136.609375 L 112.578125 -80.421875 L 162.625 0 L 110.796875 0 L 82.40625 -50.03125 L 58.578125 -30.578125 L 58.578125 0 L 14.6875 0 L 14.6875 -136.609375 L 58.578125 -136.609375 L 58.578125 -78.234375 Z M 107.21875 -136.609375 "/></g></g></g><g fill="#ffffff" fill-opacity="1"><g transform="translate(213.424359, 251.74926)"><g><path d="M 14.6875 -136.59375 L 125.078125 -136.59375 L 125.078125 -103.84375 L 58.578125 -103.84375 L 58.578125 -80.40625 L 115.75 -80.40625 L 115.75 -49.046875 L 58.578125 -49.046875 L 58.578125 0 L 14.6875 0 Z M 14.6875 -136.59375 "/></g></g></g></svg>